PathFileType	4	(X/Y/Z)	/Users/itak/Documents/Research/Walk-IL/dataset/trc/00339_00011.trc
DataRate	CameraRate	NumFrames	NumMarkers	Units	OrigDataRate	OrigDataStartFrame	OrigNumFrames
100.000000	100.000000	4	53	mm	100.000000	608	695
Frame#	Time	RPSI			LPSI			L3			STRN			T10			C7			CLAV			RBAK			LBAK			LSHO			LUPA			LAEL			LAOL			LWTS			LWPS			LFRA			LIFD			LHPS			LHTS			RSHO			RUPA			RAEL			RAOL			RWTS			RWPS			RFRA			RIFD			RHTS			RHPS			RBHD			LFHD			RFHD			LBHD			LHIP			RHIP			RASI			LASI			LKNE			LTHI			LANK			LTIP			LTOE			LMT1			LMT5			LHEE			RKNE			RTHI			RANK			RTIP			RTOE			RMT5			RHEE			RMT1			
		X1	Y1	Z1	X2	Y2	Z2	X3	Y3	Z3	X4	Y4	Z4	X5	Y5	Z5	X6	Y6	Z6	X7	Y7	Z7	X8	Y8	Z8	X9	Y9	Z9	X10	Y10	Z10	X11	Y11	Z11	X12	Y12	Z12	X13	Y13	Z13	X14	Y14	Z14	X15	Y15	Z15	X16	Y16	Z16	X17	Y17	Z17	X18	Y18	Z18	X19	Y19	Z19	X20	Y20	Z20	X21	Y21	Z21	X22	Y22	Z22	X23	Y23	Z23	X24	Y24	Z24	X25	Y25	Z25	X26	Y26	Z26	X27	Y27	Z27	X28	Y28	Z28	X29	Y29	Z29	X30	Y30	Z30	X31	Y31	Z31	X32	Y32	Z32	X33	Y33	Z33	X34	Y34	Z34	X35	Y35	Z35	X36	Y36	Z36	X37	Y37	Z37	X38	Y38	Z38	X39	Y39	Z39	X40	Y40	Z40	X41	Y41	Z41	X42	Y42	Z42	X43	Y43	Z43	X44	Y44	Z44	X45	Y45	Z45	X46	Y46	Z46	X47	Y47	Z47	X48	Y48	Z48	X49	Y49	Z49	X50	Y50	Z50	X51	Y51	Z51	X52	Y52	Z52	X53	Y53	Z53	

609	6.08	-535.2081298828125	947.5428466796875	776.4765014648438	-487.0066223144531	951.264892578125	655.5142822265625	-517.9264526367188	1011.682312011719	705.390380859375	-297.6100158691406	1196.251708984375	776.5889892578125	-517.3531494140625	1127.128784179688	677.0977172851562	-468.9031677246094	1374.513549804688	667.8218994140625	-334.1600036621094	1320.183715820312	746.4998779296875	-545.0269775390625	1239.305541992188	712.3380126953125	-434.2057495117188	1332.328002929688	574.4156494140625	-332.3104553222656	1347.26708984375	561.5662231445312	-318.5637512207031	1223.9296875	498.7539978027344	-290.9668579101562	1020.853088378906	505.1172180175781	-373.0560607910156	1005.243530273438	523.5174560546875	-205.8506164550781	799.1316528320312	618.1082153320312	-213.1732635498047	778.4719848632812	552.8703002929688	-266.7316589355469	917.5220336914062	515.414306640625	-194.0157318115234	640.5771484375	645.424560546875	-213.2503356933594	708.8690795898438	565.60302734375	-181.7889251708984	721.0382080078125	619.9768676757812	-493.8480529785156	1369.017211914062	837.9330444335938	-538.5186157226562	1308.64697265625	888.502197265625	-584.55078125	1048.393432617188	933.3915405273438	-561.7261352539062	1031.791870117188	842.42138671875	-502.5399780273438	812.648681640625	988.9987182617188	-574.1842041015625	809.1990356445312	1016.93896484375	-580.9541625976562	982.3815307617188	961.5730590820312	-522.8038940429688	640.4512939453125	1003.959106445312	-505.7443542480469	710.521484375	1020.927795410156	-574.1285400390625	722.2962036132812	1025.5205078125	-448.6918640136719	1589.355834960938	765.4268798828125	-246.0157470703125	1583.357788085938	716.2730712890625	-291.0475158691406	1589.983032226562	806.5328369140625	-409.83251953125	1576.905883789062	626.482666015625	-369.1511840820312	894.7640380859375	587.8645629882812	-493.6162719726562	900.44775390625	907.2998657226562	-383.0095520019531	937.6207275390625	900.689453125	-274.7307739257812	920.15234375	685.3890380859375	-377.1173095703125	443.7675476074219	609.06689453125	-359.7768859863281	580.3963623046875	604.4566650390625	-607.703369140625	103.3414459228516	465.5022583007812	-487.0737609863281	258.2614440917969	532.638671875	-555.2243041992188	40.58423614501953	649.1456909179688	-621.357666015625	43.40605926513672	618.0747680664062	-530.6552734375	51.80550384521484	546.9035034179688	-677.8021240234375	127.9063949584961	481.1763305664062	-329.3729858398438	469.0859680175781	987.5498657226562	-385.7217102050781	716.77587890625	968.2657470703125	-292.8892517089844	50.14178466796875	1043.580810546875	-292.8701171875	359.1880493164062	1004.615966796875	-98.97349548339844	78.61768341064453	1014.53955078125	-194.3420104980469	47.36676025390625	1072.897094726562	-335.3429565429688	46.29434967041016	987.1990356445312	-144.7027893066406	59.76004409790039	966.6270141601562	
610	6.09	-529.0924682617188	948.7960815429688	785.4251098632812	-482.3269958496094	951.7460327148438	663.8768920898438	-512.4173583984375	1012.250061035156	714.59130859375	-292.3175659179688	1197.55419921875	782.903564453125	-513.0374145507812	1127.939819335938	686.5028686523438	-465.3356018066406	1375.450439453125	676.0692749023438	-329.3583984375	1321.3955078125	753.0584106445312	-540.4702758789062	1239.95166015625	721.9214477539062	-431.7746887207031	1333.133178710938	582.3909912109375	-330.0263977050781	1348.001953125	568.1008911132812	-317.3138732910156	1224.603393554688	505.2799682617188	-290.0423278808594	1021.551940917969	510.33544921875	-371.7332763671875	1006.134094238281	530.4422607421875	-204.7747497558594	797.396728515625	618.4645385742188	-213.8164978027344	777.85205078125	553.0935668945312	-266.4320068359375	917.9319458007812	519.003173828125	-193.4046936035156	638.5018310546875	642.9179077148438	-214.1644287109375	708.1119384765625	564.7455444335938	-181.2121429443359	719.2559204101562	618.4270629882812	-487.983642578125	1370.063354492188	846.6507568359375	-531.6488037109375	1309.60498046875	898.034912109375	-575.6476440429688	1049.148803710938	944.2285766601562	-554.469970703125	1032.558715820312	852.8943481445312	-491.9436950683594	813.8059692382812	998.42724609375	-563.033203125	810.0969848632812	1027.708740234375	-571.351318359375	983.2020874023438	972.3884887695312	-511.6175537109375	641.4443969726562	1013.849243164062	-494.3299255371094	711.5670776367188	1030.491333007812	-562.6880493164062	723.2014770507812	1036.324829101562	-443.8590698242188	1590.591796875	772.8878784179688	-241.7058258056641	1584.325073242188	721.4916381835938	-285.7650451660156	1591.169921875	812.2350463867188	-406.52099609375	1577.863891601562	633.5036010742188	-365.7094421386719	895.021728515625	594.8008422851562	-486.1487121582031	902.1715087890625	916.0050048828125	-375.6128234863281	938.9796752929688	907.9237060546875	-269.6622009277344	920.8582763671875	691.5249633789062	-370.465576171875	444.1312561035156	616.00537109375	-354.0447387695312	580.6810913085938	611.5548095703125	-606.1497192382812	108.9730224609375	469.3867492675781	-483.0918579101562	261.3064270019531	537.8925170898438	-555.2727661132812	40.58550643920898	649.4133911132812	-620.453369140625	44.45911407470703	619.837646484375	-530.1378784179688	52.46109771728516	548.208984375	-675.3450927734375	134.7909698486328	486.5760498046875	-321.0114440917969	470.0702819824219	993.2538452148438	-377.6348876953125	717.8976440429688	975.0822143554688	-292.0594177246094	49.84933090209961	1044.450073242188	-285.8870544433594	359.4520874023438	1008.136657714844	-97.59981536865234	74.64070129394531	1014.898376464844	-193.5492553710938	44.81087875366211	1073.307373046875	-334.7657775878906	47.29609298706055	988.0110473632812	-143.8773803710938	57.32030868530273	967.0062255859375	
611	6.100000000000001	-522.9052734375	950.5162963867188	794.05029296875	-477.521484375	952.5396728515625	672.0252685546875	-506.9158020019531	1013.074035644531	723.4722290039062	-286.9868469238281	1199.079833984375	789.0778198242188	-508.5669860839844	1128.964111328125	695.7320556640625	-461.7311096191406	1376.573974609375	684.2377319335938	-324.5474548339844	1322.809448242188	759.5233154296875	-535.8170776367188	1240.838256835938	731.3798217773438	-429.2794799804688	1334.19287109375	590.2962646484375	-327.7207336425781	1349.047119140625	574.6102294921875	-315.9867553710938	1225.607421875	511.7906494140625	-289.09814453125	1022.621154785156	515.6936645507812	-370.3428955078125	1007.391418457031	537.5478515625	-203.7682342529297	796.0424194335938	618.89794921875	-214.5295867919922	777.6882934570312	553.443115234375	-266.1160583496094	918.7781982421875	522.7847900390625	-192.922607421875	636.8357543945312	640.36767578125	-215.1833953857422	707.8273315429688	563.9617919921875	-180.7660827636719	717.8724365234375	616.9281005859375	-482.0831909179688	1371.356079101562	855.189697265625	-524.73046875	1310.846313476562	907.4006958007812	-566.5488891601562	1050.253051757812	955.013916015625	-547.1417846679688	1033.644653320312	863.3321533203125	-481.0996704101562	815.3519897460938	1007.754150390625	-551.5805053710938	811.3566284179688	1038.468994140625	-561.476806640625	984.3755493164062	983.1600952148438	-500.1794738769531	642.7724609375	1023.638793945312	-482.6348571777344	712.9403686523438	1039.921630859375	-550.9417724609375	724.4588623046875	1047.111572265625	-439.0441589355469	1591.9716796875	780.2716674804688	-237.4069213867188	1585.39013671875	726.6849365234375	-280.4939575195312	1592.443725585938	817.8977661132812	-403.1868896484375	1579.0009765625	640.4866943359375	-362.3163452148438	895.4976806640625	601.4881591796875	-478.7002563476562	904.4548950195312	924.4158325195312	-368.1930236816406	940.76171875	914.8801879882812	-264.6475830078125	921.7865600585938	697.4642944335938	-363.27001953125	444.4994506835938	623.2523193359375	-347.9375305175781	581.0347290039062	618.79443359375	-604.2552490234375	114.9284744262695	473.7648620605469	-478.638916015625	264.5251770019531	543.5322265625	-555.2904052734375	40.5241813659668	649.861572265625	-619.391845703125	45.68236541748047	621.9174194335938	-529.4971923828125	53.26498794555664	549.7542114257812	-672.4506225585938	141.9560852050781	492.58837890625	-313.3527221679688	471.14501953125	998.9912109375	-369.7843017578125	719.5154418945312	981.8191528320312	-291.4593505859375	49.599365234375	1045.265869140625	-279.671630859375	359.6835632324219	1011.777587890625	-96.51566314697266	71.20957183837891	1015.697998046875	-193.1220703125	42.63243103027344	1073.9638671875	-334.2750549316406	48.23614120483398	988.7457275390625	-143.1834259033203	55.46071243286133	967.7537841796875	
612	6.11	-516.6734008789062	952.6237182617188	802.3861083984375	-472.6173095703125	953.6366577148438	679.9828491210938	-501.4353332519531	1014.080322265625	732.0193481445312	-281.6283264160156	1200.777954101562	795.1007690429688	-503.9466247558594	1130.11865234375	704.7433471679688	-458.0964050292969	1377.82080078125	692.3079223632812	-319.7448120117188	1324.377563476562	765.8853149414062	-531.0950317382812	1241.918334960938	740.682373046875	-426.737548828125	1335.45068359375	598.105224609375	-325.4083862304688	1350.370727539062	581.0802612304688	-314.56640625	1226.93408203125	518.2327880859375	-288.15283203125	1024.052734375	521.1630249023438	-368.8901977539062	1009.00146484375	544.8057250976562	-202.8038177490234	795.0693969726562	619.4269409179688	-215.2801971435547	777.9689331054688	553.9423828125	-265.7871704101562	920.0473022460938	526.74072265625	-192.6306762695312	635.5635986328125	637.8330078125	-216.2945861816406	708.012939453125	563.287841796875	-180.4466857910156	716.8778076171875	615.5208129882812	-476.1608276367188	1372.854858398438	863.5180053710938	-517.78271484375	1312.340087890625	916.56982421875	-557.294677734375	1051.6865234375	965.7197875976562	-539.7720336914062	1035.019287109375	873.719482421875	-470.0168151855469	817.284423828125	1016.994018554688	-539.828857421875	812.96533203125	1049.225708007812	-551.360595703125	985.880615234375	993.8641967773438	-488.4872131347656	644.4345703125	1033.3359375	-470.6685791015625	714.6307983398438	1049.2177734375	-538.8759765625	726.05078125	1057.886840820312	-434.2568969726562	1593.443603515625	787.5643920898438	-233.1339263916016	1586.5234375	731.830322265625	-275.2525329589844	1593.766723632812	823.4999389648438	-399.8471069335938	1580.265258789062	647.4144897460938	-358.8639526367188	896.18115234375	608.0182495117188	-471.2886657714844	907.1615600585938	932.5455932617188	-360.7792053222656	942.8846435546875	921.5925903320312	-259.7260131835938	922.8914794921875	703.2305297851562	-355.5502014160156	444.8558349609375	630.7273559570312	-341.4759826660156	581.4315795898438	626.1183471679688	-601.9891967773438	121.1579360961914	478.6036376953125	-473.7211303710938	267.8593139648438	549.498046875	-555.2217407226562	40.3554573059082	650.531982421875	-618.1428833007812	47.14508056640625	624.324951171875	-528.6817626953125	54.28739166259766	551.5452880859375	-669.1085815429688	149.3375091552734	499.1454162597656	-306.5192260742188	472.1605224609375	1004.719970703125	-362.1760864257812	721.4871826171875	988.4608764648438	-291.0137023925781	49.36591339111328	1046.0244140625	-274.2903137207031	359.7682189941406	1015.565795898438	-95.64427185058594	68.2520751953125	1016.758422851562	-192.9343719482422	40.7875862121582	1074.78125	-333.8383483886719	49.08501434326172	989.428466796875	-142.5743865966797	54.07468032836914	968.7395629882812	
